                          =!Kharay Small Rips Rocker'zzz!=

             
           I Am Legend 2007 BRrip 720p Dual Audio [Eng-Hindi] - Henry[-=KSRR=-]

 
Years after a plague kills most of humanity and transforms the rest into monsters, the sole survivor in New York City struggles valiantly to find a cure. 



General INFO:

Format                           : Matroska
File size                        : 629 MiB
Duration                         : 1h 40mn
Overall bit rate                 : 875 Kbps
Movie name                       : I Am Legend 2007 BRrip 720p Dual Audio [Eng-Hindi] - Henry[-=KSRR=-]
Encoded date                     : UTC 2011-03-26 04:10:46
Writing application              : mkvmerge v4.2.0 ('No Talking') built on Jul 28 2010 18:38:23
Writing library                  : libebml v1.0.0 + libmatroska v1.0.0

Video
ID                               : 1
Format                           : AVC
Format/Info                      : Advanced Video Codec
Format profile                   : High@L3.1
Format settings, CABAC           : Yes
Format settings, ReFrames        : 4 frames
Muxing mode                      : Container profile=Unknown@3.1
Codec ID                         : V_MPEG4/ISO/AVC
Duration                         : 1h 40mn
Bit rate                         : 626 Kbps
Width                            : 1 280 pixels
Height                           : 544 pixels
Display aspect ratio             : 2.35:1
Frame rate                       : 23.976 fps
Color space                      : YUV
Chroma subsampling               : 4:2:0
Bit depth                        : 8 bits
Scan type                        : Progressive
Bits/(Pixel*Frame)               : 0.037
Stream size                      : 433 MiB (69%)
Title                            : Ripped BY Henry[-=KSRR=-]

Audio #1
ID                               : 2
Format                           : MPEG Audio
Format version                   : Version 1
Format profile                   : Layer 3
Mode                             : Joint stereo
Mode extension                   : MS Stereo
Codec ID                         : A_MPEG/L3
Codec ID/Hint                    : MP3
Duration                         : 1h 40mn
Bit rate mode                    : Constant
Bit rate                         : 128 Kbps
Channel(s)                       : 2 channels
Sampling rate                    : 48.0 KHz
Stream size                      : 92.0 MiB (15%)
Title                            : Henry[-=KSRR=-]
Writing library                  : LAME3.98.2

Audio #2
ID                               : 3
Format                           : MPEG Audio
Format version                   : Version 1
Format profile                   : Layer 3
Mode                             : Joint stereo
Mode extension                   : MS Stereo
Codec ID                         : A_MPEG/L3
Codec ID/Hint                    : MP3
Duration                         : 1h 40mn
Bit rate mode                    : Constant
Bit rate                         : 128 Kbps
Channel(s)                       : 2 channels
Sampling rate                    : 44.1 KHz
Stream size                      : 92.0 MiB (15%)
Title                            : Henry[-=KSRR=-]
Writing library                  : LAME3.97
Language                         : Hindi


Screens:
 
http://www.postimg.com/32000/photo-31366.jpg 
http://www.postimg.com/32000/photo-31367.jpg 
http://www.postimg.com/32000/photo-31368.jpg 
http://www.postimg.com/32000/photo-31369.jpg 
http://www.postimg.com/32000/photo-31370.jpg 
http://www.postimg.com/32000/photo-31371.jpg 
http://www.postimg.com/32000/photo-31372.jpg 
http://www.postimg.com/32000/photo-31373.jpg

Sample Incluse In Torrent

ENJOY...